<svg width="103" height="34" viewBox="0 0 103 34" fill="none" xmlns="http://www.w3.org/2000/svg">
<path d="M40.16 29.549C36.365 27.105 31.216 26.676 22.911 28.9799C14.057 31.061 11.105 32.3939 7.22799 29.7169C5.73899 28.4019 5.20499 26.2839 5.59999 23.2339C6.52499 18.2609 9.02399 13.476 13.463 8.16795C15.941 5.40695 18.239 3.03695 21.274 2.08495C23.6 1.48495 23.383 3.31595 23.101 3.57795C22.6869 3.56729 22.2779 3.6711 21.919 3.87795C21.5856 4.12425 21.3057 4.4357 21.0964 4.79342C20.887 5.15114 20.7525 5.54767 20.701 5.95895C20.634 7.57295 22.301 7.23695 23.025 6.35095C23.801 5.35095 24.949 3.43995 24.046 1.65795C23.8454 1.33374 23.5774 1.05658 23.26 0.845353C22.9426 0.634128 22.5835 0.493806 22.207 0.433951C19.428 0.274951 16.84 1.59995 14.451 3.06495C9.29697 6.60892 5.22431 11.5102 2.68399 17.226C1.32099 20.547 0.0839865 25.3039 1.93599 29.1759C3.36599 31.8629 6.33599 33.29 9.87499 32.991C12.4063 32.6288 14.913 32.1119 17.381 31.4429C19.401 30.9569 29.74 27.404 33.137 33.589C33.5447 32.9045 34.1236 32.338 34.8167 31.9453C35.5099 31.5525 36.2933 31.347 37.09 31.3489C39.9926 31.2419 42.8475 32.1093 45.2 33.813C43.7599 32.1302 42.0581 30.6904 40.16 29.549V29.549Z" fill="white"/>
<path d="M25.647 24.988C25.3842 24.9874 25.1219 24.9646 24.863 24.92C24.2108 24.683 23.652 24.2429 23.2688 23.6645C22.8855 23.0861 22.698 22.3999 22.734 21.707C22.734 21.633 22.723 21.579 22.718 21.532C22.718 21.512 22.718 21.495 22.718 21.479C22.518 19.838 24.105 16.83 24.797 15.613L24.82 15.57L24.834 15.546C24.215 15.724 23.671 15.855 23.219 15.937C23.192 15.979 22.772 16.673 22.555 17.037L22.524 17.088L22.474 17.17C22.4671 17.1838 22.4587 17.1969 22.449 17.209L22.405 17.284L22.399 17.294C21.6481 18.6352 20.7614 19.8958 19.753 21.056L19.553 21.269C19.025 21.889 16.276 24.981 13.977 24.981C13.6546 24.9845 13.3357 24.9143 13.0447 24.7756C12.7537 24.637 12.4983 24.4336 12.298 24.181C11.654 23.219 11.583 21.66 12.098 19.791C12.7147 17.7314 13.7093 15.8046 15.031 14.109C16.1686 12.5525 17.5261 11.1695 19.061 10.003C20.1034 9.12578 21.3879 8.58626 22.744 8.45596C23.1755 8.44538 23.6005 8.56225 23.966 8.79196C25.75 10.092 24.389 13.346 23.942 14.415L23.923 14.456C23.885 14.545 23.855 14.619 23.837 14.667C23.8755 14.6767 23.9152 14.6811 23.955 14.68C24.79 14.68 26.872 13.121 28.039 11.83C29.1358 10.5847 30.4593 9.55919 31.939 8.80796C32.4449 8.57441 32.9958 8.45427 33.553 8.45596C34.0226 8.44253 34.4872 8.55583 34.898 8.78396C35.1875 8.96759 35.428 9.2188 35.5989 9.51598C35.7698 9.81316 35.8659 10.1474 35.879 10.49C35.8445 11.7388 35.3548 12.932 34.502 13.845C34.3563 14.0323 34.1746 14.1887 33.9677 14.3049C33.7608 14.4212 33.5328 14.4949 33.297 14.522C33.1429 14.5172 32.9925 14.4736 32.8597 14.3951C32.727 14.3166 32.6163 14.2058 32.538 14.073C32.4404 13.6637 32.4609 13.2352 32.597 12.8372C32.7331 12.4391 32.9793 12.0878 33.307 11.824C33.4801 11.6428 33.6894 11.5002 33.9213 11.4054C34.1533 11.3107 34.4026 11.2659 34.653 11.274H34.735C34.7977 11.1739 34.84 11.0623 34.8592 10.9457C34.8784 10.8291 34.8743 10.7099 34.847 10.595C34.8286 10.5068 34.7925 10.4232 34.7409 10.3493C34.6894 10.2754 34.6234 10.2127 34.547 10.165C34.4153 10.0924 34.2661 10.0578 34.116 10.065C33.5929 10.1027 33.0951 10.3051 32.694 10.643C31.3578 11.7411 30.1962 13.0359 29.249 14.483C28.1986 16.0615 27.3494 17.765 26.721 19.554C26.4253 20.3388 26.444 21.2075 26.773 21.979C26.8856 22.1694 27.0468 22.3264 27.2401 22.4339C27.4334 22.5415 27.6518 22.5957 27.873 22.591C28.8323 22.4335 29.7214 21.989 30.423 21.316C32.2049 19.65 33.7863 17.7817 35.135 15.749C36.3756 13.9054 37.8109 12.2006 39.416 10.664C40.976 9.22596 42.361 8.46396 43.416 8.46396C43.74 8.46135 44.0595 8.53986 44.3455 8.69234C44.6314 8.84482 44.8746 9.06643 45.053 9.33696C45.068 9.35896 45.089 9.39296 45.107 9.42296L45.124 9.44796C45.1356 9.46694 45.1486 9.485 45.163 9.50196C45.176 9.48196 45.277 9.32296 45.463 9.02696L45.488 8.98696L45.546 8.89396H48.768C48.723 8.96896 41.953 20.711 41.931 20.748C41.784 21.054 41.705 21.448 41.931 21.641C41.9843 21.6769 42.0477 21.6948 42.112 21.692C42.2252 21.6873 42.3363 21.659 42.438 21.609C42.923 21.374 44.328 20.444 46.884 16.886L46.928 16.825C46.9355 16.8166 46.9422 16.8076 46.948 16.798H48.053C46.17 19.557 44.07 22.36 41.487 24.179C40.8971 24.6306 40.1903 24.9041 39.45 24.967C39.2298 24.9687 39.0111 24.9315 38.804 24.857C37.888 24.283 37.947 23.572 38.014 22.749C38.023 22.66 38.031 22.569 38.039 22.449C38.0337 22.4533 38.029 22.4584 38.025 22.464L38.018 22.471C37.507 23.063 35.704 24.993 33.965 24.993C33.7668 24.9931 33.5695 24.9655 33.379 24.911C33.1497 24.8517 32.9356 24.7443 32.7511 24.5959C32.5666 24.4474 32.4159 24.2613 32.309 24.05C31.9971 23.116 32.0258 22.1018 32.39 21.187C32.39 21.187 32.39 21.18 32.39 21.168C32.434 20.983 32.47 20.837 32.496 20.732C32.412 20.815 32.296 20.922 32.196 21.017L31.996 21.209C31.976 21.231 31.962 21.242 31.962 21.243C30.178 22.995 28.145 24.988 25.647 24.988ZM43.935 10.069C43.3453 10.161 42.8032 10.4475 42.395 10.883C41.3685 12.026 40.4025 13.222 39.501 14.466C36.962 17.884 36.163 20.311 36.095 21.116C36.078 21.2336 36.0944 21.3536 36.1423 21.4623C36.1902 21.5711 36.2677 21.6642 36.366 21.731C36.4695 21.8006 36.5924 21.8356 36.717 21.831C36.8016 21.8307 36.8857 21.8185 36.967 21.795C38.0066 21.1686 38.8675 20.2853 39.467 19.23L39.556 19.093C39.702 18.87 39.946 18.493 39.956 18.493C41.373 16.139 43.003 13.319 44.548 10.553C44.5271 10.4092 44.4519 10.2789 44.3379 10.1889C44.2238 10.0989 44.0797 10.0559 43.935 10.069V10.069ZM19.095 13.568C19.0759 13.5706 19.0575 13.577 19.041 13.587C17.8594 15.1698 16.8848 16.8971 16.141 18.727L16.053 19.007C15.807 19.788 15.503 20.756 16.092 21.46C16.1647 21.5443 16.256 21.6104 16.3588 21.6531C16.4616 21.6959 16.573 21.7139 16.684 21.706C16.8937 21.7006 17.1013 21.6621 17.299 21.592C18.5908 20.7614 19.6886 19.6625 20.518 18.37L20.524 18.362L20.54 18.335C20.559 18.306 20.591 18.254 20.632 18.184C20.76 17.976 20.992 17.599 21.225 17.22L21.373 16.978L21.66 16.512L21.929 16.077C21.9425 16.0495 21.9538 16.0211 21.963 15.992V15.985V15.977C21.9626 15.974 21.9626 15.971 21.963 15.968L21.969 15.953V15.943C21.99 15.9036 22.0042 15.861 22.011 15.817C22.011 15.8 22.004 15.789 21.999 15.789C21.3938 15.637 20.8256 15.3644 20.3283 14.9876C19.8311 14.6108 19.415 14.1374 19.105 13.596C19.1054 13.5923 19.1054 13.5886 19.105 13.585V13.58C19.1035 13.5798 19.1021 13.5794 19.1008 13.5788C19.0996 13.5781 19.0984 13.5772 19.0975 13.576C19.0965 13.5749 19.0958 13.5736 19.0954 13.5723C19.095 13.5709 19.0948 13.5694 19.095 13.568V13.568ZM22.718 9.98596C22.3344 9.99719 21.9625 10.1202 21.648 10.34C21.248 10.64 19.985 11.735 20.274 13.121C20.4144 13.4996 20.6456 13.8379 20.9472 14.1064C21.2488 14.3749 21.6117 14.5653 22.004 14.661L22.279 14.708L22.305 14.713C22.3801 14.7334 22.4572 14.7458 22.535 14.75C22.5849 14.7539 22.6345 14.7389 22.674 14.708C22.682 14.687 22.755 14.519 22.846 14.308L22.979 14.002C23.135 13.644 23.294 13.275 23.297 13.266C23.528 12.6496 23.6629 12.0013 23.697 11.344C23.7184 10.9198 23.5852 10.5023 23.322 10.169C23.1472 10.0414 22.9342 9.97683 22.718 9.98596Z" fill="white"/>
<path d="M52.588 33.021C51.9815 33.0322 51.3794 32.9159 50.8207 32.6795C50.262 32.4432 49.7593 32.0921 49.345 31.649C47.219 29.424 47.481 25.656 48.352 23.1C49.8152 18.693 52.081 14.5947 55.035 11.012C59.693 5.32897 64.041 2.05697 68.718 0.712972C69.2536 0.577111 69.8035 0.505606 70.356 0.499972C70.818 0.471943 71.2807 0.543109 71.7129 0.708691C72.1451 0.874272 72.5369 1.13044 72.862 1.45997C72.867 1.45997 73.397 1.27697 73.953 1.07597C74.9436 0.711703 75.9905 0.524518 77.046 0.522972C78.6996 0.544169 80.3209 0.983472 81.759 1.79997L82.024 1.94597L82.046 1.95797C83.479 2.74697 84.961 3.56297 86.346 4.41297L87.272 4.98197C86.66 5.56297 85.53 6.76197 84.806 7.60297C83.8314 7.08852 82.8905 6.51269 81.989 5.87897C80.4939 4.80032 78.8942 3.87467 77.214 3.11597C76.3311 2.71906 75.3847 2.48205 74.419 2.41597C74.0872 2.40367 73.7573 2.47231 73.458 2.61597C73.477 2.84897 73.489 3.14897 73.489 3.36097C73.3875 5.17729 72.8782 6.94743 71.999 8.53997C70.635 10.747 68.964 13.15 66.399 13.746C66.309 13.751 66.232 13.754 66.16 13.754C65.8793 13.7824 65.5965 13.7278 65.3465 13.597C65.0966 13.4661 64.8906 13.2648 64.754 13.018C64.015 11.673 64.735 10.142 65.262 9.02397L65.283 8.97897C66.2501 6.99496 67.6291 5.23995 69.328 3.83097C70.0953 3.16609 70.9218 2.57263 71.797 2.05797C71.51 1.94701 71.2047 1.89104 70.897 1.89297C70.2974 1.91091 69.7104 2.06914 69.183 2.35497C64.497 4.67197 61.008 9.02097 57.831 13.279C54.764 17.849 52.62 21.859 52.122 26.573C52.0076 27.2438 52.0835 27.9333 52.341 28.5633C52.5985 29.1932 53.0274 29.7384 53.579 30.137C53.9647 30.3754 54.4095 30.5011 54.863 30.5C56.1986 30.3241 57.4389 29.7121 58.391 28.759C59.9489 27.3275 61.2361 25.627 62.191 23.739C63.184 21.739 63.627 19.613 63.243 18.689C63.2106 18.5924 63.1572 18.5042 63.0867 18.4307C63.0161 18.3572 62.9302 18.3002 62.835 18.264C62.7166 18.2299 62.5941 18.2124 62.471 18.212C61.529 18.212 60.709 19.226 60.304 19.831C59.5235 20.9285 59.0021 22.1888 58.779 23.517C57.1614 24.3022 55.716 25.4011 54.527 26.75C54.692 25.0689 55.135 23.4269 55.838 21.891C57.149 18.876 59.645 16.777 62.196 16.545C62.231 16.545 62.269 16.545 62.313 16.545C62.6699 16.5394 63.021 16.6356 63.3251 16.8225C63.6292 17.0094 63.8737 17.2791 64.03 17.6C64.702 19.014 64.301 20.83 63.877 22.255C62.3539 26.5995 59.2837 30.2307 55.253 32.455C54.4086 32.811 53.5042 33.0031 52.588 33.021V33.021ZM72.437 2.95197C69.5133 4.5783 67.191 7.1029 65.814 10.152C65.383 11.176 65.305 11.906 65.582 12.324C65.6664 12.4395 65.7783 12.5322 65.9074 12.5938C66.0366 12.6555 66.179 12.684 66.322 12.677C66.4096 12.6768 66.497 12.6681 66.583 12.651C67.8387 12.0787 68.9287 11.1972 69.751 10.089C71.3037 8.23305 72.2561 5.94923 72.482 3.53997C72.5075 3.34296 72.4922 3.1428 72.437 2.95197V2.95197Z" fill="white"/>
<path d="M98.204 4.24896C95.9176 5.69528 93.2222 6.35703 90.526 6.13396C89.715 7.04796 88.925 7.98996 88.197 8.95996C92.305 10.005 96.661 7.68196 99.09 5.47196C100.689 4.04988 102.007 2.34112 102.977 0.43396C101.586 1.93786 99.9774 3.22393 98.204 4.24896V4.24896Z" fill="white"/>
<path d="M54.121 8.89496H51.061L49.335 11.695H52.394L54.121 8.89496Z" fill="white"/>
<path d="M64.472 33.0269C64.1603 33.033 63.8517 32.9644 63.572 32.8269C62.646 32.3049 62.284 31.2599 62.461 29.6319C62.7955 27.6616 63.4999 25.7723 64.537 24.0639C66.237 21.3989 68.598 18.1719 71.737 16.8719C72.2069 16.6588 72.716 16.5454 73.232 16.5389C73.6123 16.5318 73.989 16.6137 74.332 16.7779C74.6471 17.0195 74.896 17.3369 75.0553 17.7007C75.2146 18.0644 75.2792 18.4625 75.243 18.8579C75.236 19.2361 75.2056 19.6135 75.152 19.9879C74.8713 21.1674 74.4499 22.3089 73.897 23.3879C73.9591 23.4183 74.0281 23.4314 74.097 23.4259C74.642 23.3987 75.1744 23.2527 75.657 22.9979C80.051 13.8049 85.091 7.06793 91.06 2.39093L91.104 2.36493C92.0981 1.52873 93.3069 0.988242 94.593 0.804932C94.7402 0.804882 94.8872 0.818271 95.032 0.844932C95.2333 0.884233 95.4175 0.985111 95.559 1.13362C95.7005 1.28213 95.7924 1.47093 95.822 1.67393C95.9207 2.89355 95.6034 4.11064 94.922 5.12693C94.548 5.23985 94.1681 5.33199 93.784 5.40293H93.768L94.26 4.39693L94.266 4.38593V4.38093C94.6597 3.75097 94.8703 3.02381 94.874 2.28093C94.781 2.08593 94.674 2.06393 94.603 2.06393H94.561C93.672 2.24593 92.516 3.37693 91.496 4.37393L90.796 5.04493C88.3087 7.73455 86.1007 10.6696 84.206 13.8049C82.774 16.0161 81.4822 18.315 80.338 20.6879C82.152 19.8049 88.138 13.8949 91.104 9.75493C91.4748 9.7423 91.8441 9.70219 92.209 9.63493C90.0278 12.7952 87.5133 15.7119 84.709 18.3349C83.0299 19.9389 81.2289 21.4099 79.322 22.7349C78.3918 24.5957 77.7136 26.5721 77.305 28.6119C77.2276 29.0426 77.3059 29.4867 77.526 29.8649C77.5866 29.9339 77.6619 29.9885 77.7463 30.0245C77.8308 30.0605 77.9223 30.077 78.014 30.0729C78.036 30.0729 78.061 30.0729 78.093 30.0729C79.257 29.8139 81.375 26.3309 81.393 26.2969L81.466 26.1829L81.474 26.1699C83.5 22.9979 86.022 19.0489 89.486 17.0249C90.0043 16.7277 90.5887 16.5647 91.186 16.5509C91.563 16.5415 91.9348 16.6396 92.258 16.8339C92.5614 17.1074 92.8262 17.421 93.045 17.7659C93.0504 17.7541 93.0568 17.7428 93.064 17.7319L93.122 17.6319L93.204 17.4899C93.313 17.2999 93.45 17.0629 93.534 16.9279H96.8L92.032 25.3819L92.026 25.3919L92.021 25.3999C91.2006 26.6542 90.4877 27.9756 89.89 29.3499C89.8593 29.4168 89.8455 29.4902 89.8501 29.5637C89.8546 29.6372 89.8773 29.7084 89.916 29.7709C89.9507 29.8154 89.9954 29.8509 90.0465 29.8747C90.0976 29.8986 90.1537 29.9099 90.21 29.9079C90.3177 29.905 90.4221 29.8702 90.51 29.8079C92.336 28.7349 93.785 26.5359 94.95 24.7689L95.081 24.5689H96.171C95.184 26.2359 92.053 30.8689 89.471 32.2769L89.36 32.3379L89.282 32.3809L89.182 32.4369L89.161 32.4499C88.6867 32.7763 88.1349 32.9722 87.561 33.0179C87.4462 33.0182 87.3317 33.0075 87.219 32.9859C87.0438 32.9686 86.8746 32.9125 86.7238 32.8217C86.573 32.7309 86.4443 32.6077 86.347 32.4609C86.0022 31.8143 85.9246 31.0581 86.131 30.3549C85.1348 31.4881 83.8919 32.3775 82.498 32.9549C82.3279 32.9876 82.1552 33.0043 81.982 33.0049C81.7256 33.015 81.4702 32.969 81.2334 32.8702C80.9966 32.7714 80.7842 32.6222 80.611 32.4329C80.3453 32.0302 80.1675 31.576 80.0891 31.0999C80.0107 30.6238 80.0335 30.1366 80.156 29.6699C79.156 30.9189 77.24 33.0139 75.592 33.0139C75.309 33.012 75.0303 32.9441 74.7782 32.8154C74.5261 32.6868 74.3076 32.501 74.14 32.2729C73.113 30.9869 73.551 28.8909 74.719 25.4729C74.719 25.4729 74.735 25.4219 74.764 25.3379L74.814 25.1879C74.9 24.9289 75.105 24.3139 75.133 24.2139C75.125 24.2077 75.1151 24.2045 75.105 24.2049C74.5632 24.3259 74.0117 24.3982 73.457 24.4209H73.45C73.395 24.4209 73.362 24.4209 73.35 24.4269C71.602 27.5049 69.377 30.8779 66.18 32.5609C65.6526 32.8419 65.069 33.0011 64.472 33.0269ZM91.828 18.2209C91.461 18.2574 91.1139 18.405 90.833 18.6439C88.415 20.5789 86.775 23.3159 85.333 25.7309L85.258 25.8549L85.129 26.1259L85.123 26.1379C84.5449 27.1235 84.2071 28.2315 84.137 29.3719C84.1486 29.4596 84.1808 29.5434 84.2308 29.6164C84.2808 29.6893 84.3474 29.7495 84.425 29.7919C84.5205 29.8296 84.6223 29.8489 84.725 29.8489C85.1684 29.7746 85.5714 29.5462 85.863 29.2039L85.894 29.1769C85.894 29.1769 86.205 28.8999 86.209 28.8969C87.7654 26.8462 89.1526 24.6724 90.357 22.3969L90.545 22.0659L90.56 22.0399C91.131 21.0339 91.722 19.9929 92.337 18.9989C92.3774 18.92 92.4041 18.8348 92.416 18.7469C92.3984 18.5696 92.3132 18.4059 92.178 18.2899C92.067 18.244 91.9481 18.2206 91.828 18.2209V18.2209ZM69.617 21.7699C68.317 23.4449 66.256 26.7949 66.291 28.6589C66.2853 28.9506 66.3657 29.2376 66.522 29.4839C66.6085 29.5911 66.7181 29.6775 66.8426 29.7365C66.9671 29.7955 67.1032 29.8258 67.241 29.8249C68.827 29.8249 71.428 26.1889 72.316 24.2089C71.1605 23.7335 70.206 22.8714 69.616 21.7699H69.617ZM73.269 17.9879C72.9259 17.9882 72.5923 18.1006 72.319 18.3079C71.795 18.5682 71.366 18.9866 71.0927 19.5039C70.8194 20.0212 70.7156 20.6114 70.796 21.1909C70.9236 21.6833 71.1812 22.1324 71.5419 22.4911C71.9025 22.8498 72.3529 23.105 72.846 23.2299C72.8556 23.2307 72.8652 23.229 72.874 23.2249C73.4069 22.2955 73.818 21.3013 74.097 20.2669L74.105 20.2019V20.1719L74.11 20.1249C74.1481 19.8488 74.1701 19.5706 74.176 19.2919C74.2066 19.0616 74.1771 18.8272 74.0906 18.6116C74.0041 18.3959 73.8633 18.2063 73.682 18.0609C73.5489 18.0142 73.4091 17.9895 73.268 17.9879H73.269Z" fill="white"/>
</svg>
