<svg width="103" height="34" viewBox="0 0 103 34" fill="none" xmlns="http://www.w3.org/2000/svg">
<path d="M13.172 0.293945H14.077C17.2499 0.353574 20.2782 1.63191 22.534 3.86395C21.714 4.70095 20.877 5.50395 20.074 6.34095C18.833 5.16922 17.2916 4.36416 15.6209 4.01508C13.9502 3.666 12.2155 3.78653 10.6091 4.36331C9.00274 4.94009 7.58754 5.95057 6.52049 7.28267C5.45343 8.61477 4.77623 10.2164 4.564 11.9099C4.38308 13.2108 4.4736 14.5351 4.82987 15.7992C5.18614 17.0634 5.80042 18.24 6.634 19.2549C7.45323 20.2373 8.46947 21.0367 9.61701 21.6017C10.7646 22.1667 12.0179 22.4846 13.296 22.5349C14.4972 22.6263 15.7044 22.4719 16.8439 22.0813C17.9834 21.6907 19.0315 21.072 19.924 20.2629C21.2166 19.0185 22.0007 17.338 22.124 15.5479C19.288 15.5479 16.453 15.5649 13.617 15.5479V12.0289H25.557C26.172 15.8039 25.284 20.0569 22.414 22.7559C20.451 24.6605 17.8815 25.8153 15.154 26.0189C12.5165 26.2892 9.85825 25.767 7.519 24.5189C4.7107 23.017 2.54312 20.5467 1.419 17.5669C0.400475 14.8209 0.37042 11.8058 1.334 9.03995C2.22477 6.52911 3.86546 4.35258 6.034 2.80495C8.12296 1.30009 10.601 0.428387 13.172 0.293945V0.293945Z" fill="white"/>
<path d="M81.67 1.18195H85.325V25.5749C84.112 25.5749 82.882 25.5919 81.67 25.5579C81.687 17.4439 81.67 9.31295 81.67 1.18195Z" fill="white"/>
<path d="M35.328 26.0859C35.152 26.0859 34.974 26.0799 34.799 26.0679C33.5815 26.004 32.3931 25.6725 31.3184 25.0969C30.2436 24.5213 29.309 23.7159 28.581 22.7379C27.7763 21.6375 27.2587 20.3538 27.075 19.0029C26.8818 17.653 27.011 16.2764 27.452 14.9859C27.9057 13.6133 28.7326 12.3942 29.84 11.4649C30.9371 10.5234 32.266 9.89232 33.689 9.63695C34.2241 9.53616 34.7675 9.4856 35.312 9.48595C37.0791 9.47475 38.8053 10.0175 40.248 11.0379C41.9543 12.2574 43.1135 14.0982 43.476 16.1639C43.7138 17.3573 43.6887 18.5882 43.4024 19.7708C43.116 20.9535 42.5754 22.0595 41.818 23.0119C41.0359 23.9781 40.0465 24.7561 38.9231 25.2882C37.7997 25.8203 36.571 26.0929 35.328 26.0859V26.0859ZM35.282 12.7489C34.917 12.7489 34.5534 12.7949 34.2 12.8859C33.2628 13.128 32.4262 13.6604 31.81 14.4069C31.0054 15.4215 30.5906 16.6904 30.6405 17.9843C30.6903 19.2781 31.2017 20.5114 32.082 21.4609C32.5051 21.887 33.0083 22.2252 33.5627 22.456C34.117 22.6869 34.7115 22.8058 35.312 22.8059C35.5923 22.8061 35.872 22.7787 36.147 22.7239C36.8173 22.5957 37.4505 22.3192 38.0002 21.9147C38.5499 21.5101 39.0022 20.9878 39.324 20.3859C39.8833 19.3545 40.0967 18.1708 39.933 17.0089C39.7921 15.8471 39.2511 14.7705 38.403 13.9639C37.5498 13.1852 36.4372 12.752 35.282 12.7489V12.7489Z" fill="white"/>
<path d="M53.4479 26.0791C53.3199 26.0791 53.1979 26.0791 53.0729 26.0711C51.8274 26.0324 50.6064 25.715 49.4999 25.1421C48.3863 24.5731 47.4216 23.7511 46.6829 22.7421C45.8637 21.6162 45.3447 20.3002 45.1749 18.9181C44.9935 17.5362 45.1429 16.131 45.6109 14.8181C46.09 13.4871 46.9191 12.3098 48.0109 11.4101C49.0941 10.4969 50.3989 9.88533 51.7939 9.63714C52.3265 9.53564 52.8676 9.48475 53.4099 9.48514C55.5212 9.4699 57.5609 10.2504 59.1229 11.6711C60.6626 13.1074 61.5884 15.0828 61.7069 17.1851C61.8026 18.3239 61.6597 19.4702 61.2871 20.5506C60.9146 21.631 60.3206 22.6217 59.5432 23.4594C58.7659 24.2971 57.8222 24.9634 56.7726 25.4155C55.723 25.8676 54.5906 26.0957 53.4479 26.0851V26.0791ZM53.3999 12.7461C53.0311 12.7461 52.6639 12.7928 52.3069 12.8851C51.3736 13.1259 50.538 13.6499 49.9149 14.3851C49.1034 15.377 48.6833 16.6317 48.7339 17.9121C48.7465 19.1951 49.233 20.4282 50.0999 21.3741C50.5292 21.8237 51.0445 22.1823 51.6152 22.4286C52.1859 22.675 52.8003 22.804 53.4219 22.8081C53.706 22.8082 53.9894 22.7797 54.2679 22.7231C54.9361 22.5887 55.5669 22.3096 56.1157 21.9053C56.6646 21.5011 57.1183 20.9815 57.4449 20.3831C57.9983 19.3422 58.2063 18.1521 58.0389 16.9851C57.8931 15.8206 57.3456 14.7434 56.4909 13.9391C55.6445 13.1713 54.5426 12.7461 53.3999 12.7461V12.7461Z" fill="white"/>
<path d="M71.257 33.525C70.7686 33.5247 70.2809 33.4879 69.798 33.415C68.4809 33.1884 67.2424 32.6328 66.1973 31.7998C65.1523 30.9668 64.3346 29.8834 63.82 28.65C64.468 28.336 65.166 28.05 65.78 27.801L65.819 27.785C66.2 27.629 66.594 27.468 66.979 27.3C67.2572 28.0141 67.7062 28.6492 68.2867 29.1495C68.8673 29.6498 69.5616 30.0002 70.309 30.17C70.6219 30.2258 70.9391 30.2539 71.257 30.254C71.8847 30.2798 72.5101 30.1628 73.0859 29.9116C73.6617 29.6604 74.173 29.2817 74.581 28.804C75.61 27.542 75.645 25.878 75.588 24.14C74.8367 24.9566 73.8732 25.5483 72.805 25.849C72.2453 26.0045 71.6669 26.0825 71.086 26.081C69.2022 26.0496 67.3924 25.3427 65.986 24.089C65.0615 23.2755 64.3286 22.2674 63.84 21.137C63.3438 20.0069 63.1093 18.7794 63.154 17.546C63.1873 16.1512 63.5748 14.7878 64.28 13.584C64.9762 12.3765 65.9613 11.3607 67.147 10.628C68.3263 9.88957 69.6876 9.49349 71.079 9.48397C72.0383 9.47499 72.9864 9.69111 73.847 10.115C74.4961 10.4397 75.0849 10.8729 75.588 11.396C75.597 11.166 75.597 10.926 75.597 10.696C75.597 10.466 75.597 10.219 75.606 9.98097C76.178 9.98397 76.761 9.98397 77.324 9.98397C77.887 9.98397 78.474 9.98397 79.056 9.99297V25.061C79.029 28.461 77.824 30.383 76.818 31.398C76.0795 32.1051 75.2072 32.6576 74.2522 33.0228C73.2972 33.3881 72.2789 33.5588 71.257 33.525V33.525ZM71.404 12.751C71.1629 12.7507 70.9223 12.7721 70.685 12.815C69.6348 12.9974 68.684 13.548 68.003 14.368C67.2112 15.3372 66.7863 16.5545 66.803 17.806C66.7886 19.0527 67.221 20.2634 68.022 21.219C68.4391 21.7155 68.9593 22.1153 69.5464 22.3908C70.1335 22.6662 70.7735 22.8106 71.422 22.814C71.5686 22.8141 71.7152 22.8064 71.861 22.791C72.5374 22.7115 73.1855 22.4736 73.7527 22.0965C74.3198 21.7195 74.79 21.2139 75.125 20.621C75.6857 19.6104 75.9303 18.4548 75.8273 17.3037C75.7243 16.1526 75.2783 15.0589 74.547 14.164C74.1523 13.7203 73.6682 13.365 73.1265 13.1215C72.5849 12.878 71.9979 12.7517 71.404 12.751V12.751Z" fill="white"/>
<path d="M95.326 26.073C94.1407 26.0812 92.9679 25.8312 91.889 25.3402C90.8102 24.8492 89.8513 24.1291 89.079 23.23C87.6926 21.5554 86.9986 19.4144 87.139 17.245C87.2257 15.0692 88.1489 13.0108 89.716 11.499C91.1472 10.191 93.0172 9.46799 94.956 9.47296C95.8442 9.46922 96.7255 9.62887 97.556 9.94396C98.7734 10.421 99.8373 11.2215 100.633 12.259C101.433 13.2917 102.045 14.4567 102.442 15.701C100.178 16.64 97.899 17.583 96.166 18.301L91.34 20.301C91.8165 21.3122 92.6583 22.1054 93.696 22.521C94.2375 22.7139 94.8082 22.812 95.383 22.811C96.4026 22.824 97.3969 22.4936 98.206 21.873C98.6818 21.478 99.1064 21.0252 99.47 20.525C99.978 20.865 100.515 21.225 100.947 21.507C101.425 21.824 101.857 22.107 102.29 22.402C101.616 23.4026 100.733 24.2455 99.702 24.873C98.6723 25.5074 97.5116 25.899 96.308 26.018C95.982 26.0559 95.6541 26.0742 95.326 26.073V26.073ZM95.126 12.689C94.4154 12.7101 93.72 12.8997 93.0971 13.2422C92.4742 13.5847 91.9415 14.0703 91.543 14.659C90.9827 15.5088 90.7029 16.5129 90.743 17.53C92.799 16.673 95.506 15.556 98.172 14.438C97.9442 13.9767 97.6043 13.5801 97.1834 13.2843C96.7625 12.9885 96.2741 12.8031 95.763 12.745C95.5527 12.7074 95.3396 12.6887 95.126 12.689Z" fill="white"/>
</svg>
