<svg width="102" height="19" viewBox="0 0 102 19" fill="none" xmlns="http://www.w3.org/2000/svg">
<path d="M38.964 17.0369C38.3027 17.0604 37.6433 16.9532 37.0236 16.7216C36.4038 16.4899 35.8357 16.1383 35.352 15.6869C34.8735 15.2091 34.5004 14.6365 34.2565 14.0058C34.0126 13.3751 33.9034 12.7003 33.936 12.0249C33.9033 11.323 34.0133 10.6217 34.2593 9.9634C34.5052 9.30512 34.882 8.70352 35.367 8.19494C36.2248 7.33912 37.3852 6.85556 38.597 6.84894C39.8415 6.84739 41.0432 7.30288 41.974 8.12894C42.6715 8.67861 43.1262 9.47935 43.241 10.3599C43.2376 10.5241 43.2003 10.6857 43.1315 10.8347C43.0626 10.9838 42.9637 11.117 42.841 11.2259C42.263 11.8059 40.618 12.5129 37.815 13.3889C37.538 13.4659 37.398 13.5779 37.398 13.7229C37.398 14.2229 38.141 14.9709 39.262 14.9709C39.7811 14.9826 40.2972 14.8883 40.7787 14.6937C41.2601 14.499 41.6968 14.2082 42.062 13.8389C42.1195 13.7674 42.1932 13.7106 42.277 13.6732C42.3608 13.6358 42.4523 13.6189 42.544 13.6239C42.6508 13.6216 42.7568 13.6426 42.8546 13.6856C42.9524 13.7287 43.0396 13.7926 43.11 13.8729C43.1987 13.9557 43.2685 14.0566 43.3148 14.1687C43.361 14.2809 43.3826 14.4017 43.378 14.5229C43.378 14.8029 43.199 15.1019 42.778 15.5229C42.2737 16.0147 41.6771 16.4017 41.0225 16.6615C40.3678 16.9214 39.6682 17.049 38.964 17.0369V17.0369ZM38.597 8.46394C38.3127 8.46214 38.0347 8.54742 37.8003 8.70831C37.5659 8.86921 37.3864 9.09801 37.286 9.36394C37.0473 9.94202 36.9325 10.5637 36.949 11.1889C36.949 11.7119 37.102 11.9569 37.431 11.9569C37.9807 11.8814 38.5184 11.7355 39.031 11.5229C40.031 11.1739 40.298 10.9919 40.298 10.3749C40.295 9.73194 39.782 8.46394 38.597 8.46394Z" fill="white"/>
<path d="M27.31 15.7549C27.3145 15.7164 27.3111 15.6773 27.2999 15.6402C27.2888 15.603 27.2701 15.5686 27.245 15.5389C27.111 15.4049 26.612 15.3229 26.363 15.0719C26.181 14.8879 26.063 14.5719 26.063 13.8409V11.0259C26.063 10.8099 26.113 10.6769 26.33 10.6769H29.193C29.409 10.6769 29.459 10.8089 29.459 11.0269V13.8409C29.459 14.5729 29.343 14.8889 29.159 15.0719C28.91 15.3209 28.41 15.4039 28.277 15.5389C28.2514 15.5683 28.2322 15.6027 28.2207 15.6399C28.2092 15.6771 28.2055 15.7162 28.21 15.7549C28.1911 16.0714 28.2363 16.3884 28.343 16.6869C28.41 16.7539 28.51 16.7699 28.727 16.7699H33.401C33.617 16.7699 33.717 16.7539 33.784 16.6869C33.892 16.3887 33.9376 16.0715 33.918 15.7549C33.9221 15.7163 33.9183 15.6772 33.9067 15.64C33.8952 15.6029 33.8763 15.5685 33.851 15.5389C33.734 15.4229 33.218 15.3229 32.968 15.0719C32.7393 14.7536 32.6387 14.361 32.686 13.9719V6.19893C32.6598 5.90521 32.7491 5.61284 32.935 5.38393C33.202 5.11693 33.735 5.06693 33.851 4.94993C33.9008 4.88323 33.9252 4.801 33.92 4.71793C33.929 4.4398 33.8834 4.16259 33.786 3.90193C33.719 3.83493 33.654 3.81793 33.401 3.81793H28.892C28.71 3.81793 28.643 3.83493 28.592 3.88493C28.5049 4.15897 28.4709 4.44715 28.492 4.73393C28.4863 4.80934 28.5038 4.88469 28.542 4.94993C28.771 5.06532 28.9934 5.19352 29.208 5.33393C29.39 5.51793 29.457 5.71793 29.457 6.28293V8.49593C29.4537 8.54789 29.4316 8.59687 29.3947 8.63368C29.3579 8.6705 29.3089 8.69263 29.257 8.69593H26.257C26.205 8.69263 26.1561 8.6705 26.1192 8.63368C26.0824 8.59687 26.0603 8.54789 26.057 8.49593V6.28193C26.057 5.71593 26.124 5.51593 26.307 5.33293C26.5213 5.19203 26.7437 5.06381 26.973 4.94893C27.0113 4.88374 27.0288 4.80835 27.023 4.73293C27.0442 4.44614 27.0102 4.15795 26.923 3.88393C26.878 3.83493 26.811 3.81793 26.629 3.81793H22.117C21.868 3.81793 21.801 3.83493 21.734 3.90193C21.6375 4.16281 21.5923 4.4399 21.601 4.71793C21.5948 4.80111 21.6185 4.88377 21.668 4.95093C21.785 5.06793 22.317 5.11793 22.584 5.38493C22.7701 5.61374 22.8594 5.90619 22.833 6.19993V13.9739C22.8802 14.3631 22.7792 14.7559 22.55 15.0739C22.301 15.3179 21.785 15.4179 21.668 15.5379C21.6424 15.5673 21.6232 15.6017 21.6117 15.6389C21.6002 15.6761 21.5965 15.7152 21.601 15.7539C21.5821 16.0704 21.6273 16.3874 21.734 16.6859C21.801 16.7529 21.868 16.7689 22.118 16.7689H26.795C27.011 16.7689 27.111 16.7529 27.179 16.6859C27.2849 16.3873 27.3295 16.0702 27.31 15.7539V15.7549Z" fill="white"/>
<path d="M47.986 7.41396C47.9918 7.3732 47.9881 7.33164 47.9751 7.29257C47.9621 7.2535 47.9402 7.218 47.9111 7.18888C47.8819 7.15977 47.8464 7.13784 47.8074 7.12483C47.7683 7.11183 47.7267 7.1081 47.686 7.11396H44.473C44.29 7.11396 44.224 7.11396 44.173 7.18096C44.0767 7.44188 44.0319 7.71899 44.041 7.99696C44.0429 8.06867 44.0658 8.13823 44.107 8.19696C44.224 8.34696 44.473 8.39696 44.69 8.57996C44.8728 8.86047 44.9497 9.19689 44.907 9.52896V13.973C44.959 14.3557 44.8763 14.7446 44.673 15.073C44.424 15.322 44.007 15.439 43.891 15.555C43.8486 15.6189 43.8309 15.696 43.841 15.772C43.8215 16.0829 43.8668 16.3945 43.974 16.687C44.0185 16.7212 44.0693 16.7461 44.1236 16.7604C44.1779 16.7746 44.2344 16.7779 44.29 16.77H48.569C48.6245 16.7778 48.6811 16.7745 48.7353 16.7602C48.7896 16.746 48.8404 16.7211 48.885 16.687C48.9838 16.3926 49.0232 16.0816 49.001 15.772C49.0113 15.696 48.9935 15.6188 48.951 15.555C48.6903 15.4121 48.44 15.2511 48.202 15.073C48.036 14.906 47.986 14.54 47.986 13.973V7.41396Z" fill="white"/>
<path d="M46.205 3.21897C45.9895 3.21553 45.7754 3.25463 45.5751 3.33402C45.3747 3.41341 45.192 3.53154 45.0373 3.68164C44.8827 3.83174 44.7591 4.01087 44.6738 4.20878C44.5884 4.40668 44.543 4.61947 44.54 4.83497C44.5414 5.05163 44.5857 5.26585 44.6703 5.46531C44.7549 5.66477 44.8781 5.84551 45.0329 5.99712C45.1877 6.14873 45.3709 6.26821 45.5721 6.34868C45.7732 6.42915 45.9883 6.46901 46.205 6.46597C46.4229 6.47075 46.6396 6.4322 46.8425 6.35256C47.0454 6.27292 47.2304 6.15378 47.3869 6.00204C47.5434 5.85031 47.6681 5.66901 47.754 5.46867C47.8398 5.26833 47.885 5.05293 47.887 4.83497C47.8835 4.61817 47.8371 4.40421 47.7505 4.20542C47.6639 4.00663 47.5388 3.82694 47.3825 3.67672C47.2261 3.52649 47.0416 3.40871 46.8395 3.33014C46.6374 3.25158 46.4217 3.2138 46.205 3.21897V3.21897Z" fill="white"/>
<path d="M59.108 9.69496C59.108 7.82996 58.142 6.88196 56.627 6.88196C55.8276 6.90447 55.0498 7.14665 54.379 7.58196C54.112 7.74896 54.029 7.79796 53.963 7.79796C53.696 7.79796 53.88 7.11496 53.397 7.11496H50.468C50.284 7.11396 50.234 7.11396 50.168 7.18196C50.0571 7.43916 50.0058 7.71813 50.018 7.99796C50.0147 8.03411 50.019 8.07055 50.0306 8.10497C50.0421 8.13939 50.0606 8.17105 50.085 8.19796C50.218 8.32996 50.468 8.38196 50.668 8.58196C50.8512 8.86228 50.9278 9.19897 50.884 9.53096V13.973C50.884 14.54 50.834 14.906 50.668 15.073C50.428 15.2485 50.1779 15.4098 49.919 15.556C49.8763 15.6193 49.8581 15.6962 49.868 15.772C49.846 16.0801 49.8858 16.3894 49.985 16.682C50.0816 16.7506 50.2005 16.7803 50.318 16.765H54.518C54.718 16.765 54.784 16.731 54.833 16.682C54.9569 16.3938 55.0088 16.0797 54.984 15.767C54.9946 15.6909 54.9768 15.6137 54.934 15.55C54.6763 15.4018 54.4263 15.2406 54.185 15.067C53.9752 14.741 53.887 14.3515 53.936 13.967V10.694C53.936 9.34596 54.684 8.92996 55.236 8.92996C55.802 8.92996 56.119 9.34696 56.119 10.23V14.84C56.1049 15.1247 56.1531 15.409 56.2602 15.6731C56.3674 15.9373 56.5309 16.1748 56.7393 16.3693C56.9477 16.5637 57.1961 16.7103 57.467 16.7989C57.738 16.8874 58.025 16.9158 58.308 16.882C58.776 16.9218 59.2445 16.8114 59.6455 16.5669C60.0465 16.3223 60.3592 15.9563 60.538 15.522C60.538 15.322 60.223 14.922 60.023 14.922C59.79 14.922 59.457 15.222 59.29 15.222C59.174 15.222 59.108 15.139 59.108 14.872V9.69496V9.69496Z" fill="white"/>
<path d="M86.14 17.0369C85.4789 17.0606 84.8196 16.9537 84.1998 16.7224C83.5801 16.4911 83.012 16.1399 82.528 15.6889C82.05 15.2105 81.6773 14.6373 81.4338 14.0064C81.1903 13.3754 81.0814 12.7005 81.114 12.0249C81.0816 11.3233 81.1917 10.6224 81.4377 9.96447C81.6836 9.30656 82.0603 8.70529 82.545 8.19694C83.4023 7.34002 84.5629 6.85566 85.775 6.84894C87.0195 6.84739 88.2212 7.30288 89.152 8.12894C89.8495 8.67861 90.3042 9.47935 90.419 10.3599C90.4155 10.524 90.3781 10.6857 90.3093 10.8347C90.2405 10.9837 90.1417 11.1169 90.019 11.2259C89.438 11.8059 87.793 12.5139 84.991 13.3889C84.715 13.4659 84.575 13.5779 84.575 13.7229C84.575 14.2229 85.319 14.9709 86.439 14.9709C86.9582 14.9828 87.4743 14.8885 87.9558 14.6938C88.4372 14.4992 88.8739 14.2083 89.239 13.8389C89.2969 13.7676 89.3708 13.711 89.4548 13.6737C89.5387 13.6363 89.6302 13.6193 89.722 13.6239C89.8287 13.6221 89.9346 13.6434 90.0323 13.6864C90.13 13.7294 90.2172 13.793 90.288 13.8729C90.3762 13.956 90.4456 14.057 90.4914 14.1691C90.5373 14.2812 90.5587 14.4019 90.554 14.5229C90.554 14.7229 90.482 14.9949 89.954 15.5229C89.4497 16.0146 88.853 16.4015 88.1984 16.6614C87.5438 16.9212 86.8442 17.0489 86.14 17.0369V17.0369ZM85.775 8.46394C85.4909 8.4622 85.213 8.54752 84.9788 8.70842C84.7446 8.86932 84.5653 9.09808 84.465 9.36394C84.2255 9.94217 84.1103 10.5643 84.127 11.1899C84.127 11.7129 84.28 11.9579 84.609 11.9579C85.1587 11.8825 85.6965 11.7367 86.209 11.5239C87.209 11.1759 87.474 10.9939 87.474 10.3759C87.473 9.73194 86.96 8.46394 85.775 8.46394Z" fill="white"/>
<path d="M65.681 17.0369C65.0199 17.0606 64.3606 16.9537 63.7408 16.7224C63.121 16.4911 62.5529 16.1399 62.069 15.6889C61.591 15.2105 61.2183 14.6373 60.9748 14.0064C60.7313 13.3754 60.6223 12.7005 60.655 12.0249C60.6231 11.3234 60.7334 10.6226 60.9793 9.96472C61.2252 9.30687 61.6017 8.70556 62.086 8.19694C62.9425 7.34005 64.1024 6.85565 65.314 6.84894C66.5591 6.84699 67.7616 7.30251 68.693 8.12894C69.3905 8.67861 69.8452 9.47935 69.96 10.3599C69.9566 10.5241 69.9193 10.6857 69.8505 10.8347C69.7816 10.9838 69.6827 11.117 69.56 11.2259C68.982 11.8059 67.337 12.5129 64.534 13.3889C64.257 13.4659 64.117 13.5779 64.117 13.7229C64.117 14.2229 64.86 14.9709 65.981 14.9709C66.5001 14.9827 67.0163 14.8883 67.4977 14.6937C67.9791 14.499 68.4158 14.2082 68.781 13.8389C68.8386 13.7673 68.9125 13.7105 68.9965 13.6731C69.0805 13.6357 69.1722 13.6189 69.264 13.6239C69.3704 13.622 69.476 13.6433 69.5734 13.6863C69.6708 13.7293 69.7577 13.793 69.828 13.8729C69.917 13.9555 69.987 14.0563 70.0333 14.1686C70.0795 14.2808 70.1009 14.4017 70.096 14.5229C70.096 14.8029 69.917 15.1019 69.496 15.5229C68.9916 16.0147 68.3947 16.4017 67.7399 16.6616C67.0851 16.9214 66.3853 17.049 65.681 17.0369V17.0369ZM65.316 8.46394C65.0318 8.46206 64.7539 8.54732 64.5197 8.70824C64.2854 8.86916 64.1061 9.09801 64.006 9.36394C63.7672 9.94235 63.6524 10.5644 63.669 11.1899C63.669 11.7129 63.822 11.9579 64.151 11.9579C64.7007 11.8825 65.2385 11.7367 65.751 11.5239C66.751 11.1749 67.018 10.9929 67.018 10.3759C67.016 9.73194 66.503 8.46394 65.316 8.46394Z" fill="white"/>
<path d="M100.341 9.69496C100.341 7.82996 99.377 6.88196 97.862 6.88196C97.0629 6.90434 96.2854 7.14654 95.615 7.58196C95.348 7.74796 95.264 7.79796 95.199 7.79796C94.932 7.79796 95.115 7.11496 94.633 7.11496H91.704C91.519 7.11496 91.469 7.11496 91.404 7.18196C91.293 7.4395 91.2418 7.7188 91.254 7.99896C91.2508 8.03511 91.2551 8.07153 91.2666 8.10594C91.2782 8.14035 91.2967 8.17202 91.321 8.19896C91.453 8.33096 91.704 8.38196 91.904 8.58196C92.0864 8.86259 92.163 9.19901 92.12 9.53096V13.974C92.12 14.541 92.07 14.907 91.904 15.074C91.664 15.2492 91.4139 15.4101 91.155 15.556C91.1124 15.6198 91.0942 15.6968 91.104 15.773C91.0822 16.0825 91.1213 16.3934 91.219 16.688C91.3161 16.7561 91.4352 16.7857 91.553 16.771H95.748C95.948 16.771 96.015 16.737 96.065 16.688C96.1875 16.3994 96.2386 16.0855 96.214 15.773C96.2246 15.6969 96.2068 15.6197 96.164 15.556C95.9061 15.4084 95.6561 15.2475 95.415 15.074C95.2042 14.7484 95.1153 14.3588 95.164 13.974V10.695C95.164 9.34696 95.914 8.93096 96.464 8.93096C97.031 8.93096 97.346 9.34696 97.346 10.231V14.841C97.3309 15.1271 97.3787 15.4131 97.4862 15.6787C97.5936 15.9443 97.758 16.1832 97.9678 16.3784C98.1776 16.5736 98.4276 16.7204 98.7003 16.8084C98.973 16.8965 99.2617 16.9236 99.546 16.888C100.015 16.9273 100.483 16.8161 100.884 16.5706C101.286 16.3251 101.598 15.9581 101.776 15.523C101.776 15.323 101.46 14.923 101.26 14.923C101.027 14.923 100.694 15.223 100.528 15.223C100.411 15.223 100.343 15.14 100.343 14.873V9.69496H100.341Z" fill="white"/>
<path d="M74.205 3.51898H71.009C70.809 3.51898 70.725 3.51898 70.677 3.60298C70.5889 3.85358 70.5489 4.11855 70.559 4.38398C70.5558 4.46525 70.573 4.54603 70.609 4.61898C70.725 4.73598 71.176 4.85198 71.375 5.05198C71.541 5.21898 71.625 5.55198 71.625 6.81598V13.474C71.625 14.59 71.509 14.94 71.376 15.074C71.1361 15.2494 70.886 15.4104 70.627 15.556C70.5849 15.62 70.5671 15.697 70.577 15.773C70.5548 16.0826 70.5943 16.3936 70.693 16.688C70.743 16.738 70.809 16.771 71.026 16.771H75.204C75.42 16.771 75.487 16.737 75.536 16.688C75.6527 16.3977 75.7039 16.0853 75.686 15.773C75.686 15.656 75.67 15.59 75.619 15.556C75.3633 15.4133 75.1183 15.2523 74.886 15.074C74.704 14.907 74.637 14.541 74.637 13.974V13.592C74.637 13.376 74.704 13.308 75.07 12.942C75.1832 12.8112 75.3341 12.7186 75.502 12.677C75.669 12.677 75.802 12.793 77.632 16.488C77.748 16.721 77.798 16.771 78.098 16.771H80.812C81.012 16.771 81.079 16.737 81.128 16.688C81.2355 16.3956 81.2808 16.0839 81.261 15.773C81.2713 15.697 81.2535 15.6198 81.211 15.556C81.094 15.44 80.396 15.356 80.245 15.074C77.834 10.994 77.766 10.86 77.766 10.611C78.2998 9.84622 78.9583 9.17657 79.714 8.62998C80.281 8.17998 80.646 8.47898 80.646 7.94698C80.646 7.33098 80.563 7.11398 80.446 7.11398H76.418C76.068 7.11398 76.035 7.31398 76.035 8.06298C76.035 8.31198 76.735 8.34598 76.735 8.69498C76.2271 9.47841 75.5506 10.1385 74.755 10.627C74.655 10.627 74.638 10.56 74.638 10.277V3.98498C74.6421 3.9255 74.6339 3.86582 74.6141 3.80961C74.5942 3.7534 74.563 3.70187 74.5224 3.6582C74.4818 3.61452 74.4327 3.57963 74.3781 3.55569C74.3235 3.53174 74.2646 3.51925 74.205 3.51898V3.51898Z" fill="white"/>
<path d="M9.30398 0.907959L11.519 7.62896L18.593 7.65396L12.879 11.833L15.042 18.569L9.30398 14.431L3.56598 18.568L5.72898 11.832L0.0189819 7.65396L7.09398 7.62896L9.30398 0.907959Z" fill="white"/>
<path d="M99.536 6.21693C99.2845 6.07609 99.0768 5.86844 98.936 5.61693C98.7933 5.36749 98.7184 5.08504 98.7188 4.79767C98.7191 4.5103 98.7947 4.22803 98.938 3.97893C99.079 3.72517 99.2896 3.51699 99.545 3.37893C99.7909 3.24051 100.068 3.16779 100.35 3.16779C100.633 3.16779 100.91 3.24051 101.156 3.37893C101.409 3.51738 101.618 3.72563 101.756 3.97893C101.9 4.22717 101.976 4.50901 101.976 4.79593C101.976 5.08286 101.9 5.3647 101.756 5.61293C101.616 5.8654 101.408 6.07337 101.156 6.21293C100.908 6.35429 100.628 6.42863 100.343 6.42863C100.058 6.42863 99.7776 6.35429 99.53 6.21293L99.536 6.21693Z" fill="white"/>
</svg>
