<svg width="103" height="28" viewBox="0 0 103 28" fill="none" xmlns="http://www.w3.org/2000/svg">
<path d="M0.09198 27.9589V0.293945H4.45198L10.018 16.0939V0.293945H14.199V26.2939C12.6056 26.4519 11.016 26.6186 9.42998 26.7939L4.27098 12.1569V27.4119C2.88498 27.5866 1.50065 27.7689 0.11798 27.9589H0.09198ZM97.497 27.3519L94.525 18.9189L91.398 26.6399C89.982 26.4873 88.5633 26.3409 87.142 26.2009L92.46 13.0649L87.962 0.293945H92.321L94.792 7.31095L97.608 0.357945L97.653 0.293945H102.068L96.856 13.1659L102.066 27.9529C100.55 27.7436 99.027 27.5433 97.497 27.3519ZM79.492 25.5389V0.293945H83.848V25.8939C82.3973 25.7706 80.9453 25.6523 79.492 25.5389ZM18.916 0.293945H29.316V4.30495H23.292V11.0729H28.526V15.0809H23.292V21.4939C25.292 21.3439 27.2986 21.2106 29.312 21.0939V25.1079C25.8453 25.3079 22.3806 25.5583 18.918 25.8589L18.916 0.293945ZM64.93 24.7259V0.293945H69.306V20.9019C71.32 20.9999 73.3293 21.1133 75.334 21.2419V25.2569C71.8773 25.0323 68.4093 24.8553 64.93 24.7259ZM37.592 4.30595H33.52V0.293945H46.02V4.30395H41.951V24.5809C40.4963 24.6163 39.0436 24.6599 37.593 24.7119L37.592 4.30595ZM51.119 24.4669C50.835 24.4669 50.551 24.4669 50.269 24.4669V0.293945H60.669V4.30595H54.643V11.0739H59.877V15.0789H54.643V24.4859C53.47 24.4759 52.292 24.4669 51.119 24.4669Z" fill="white"/>
</svg>
