<svg width="103" height="27" viewBox="0 0 103 27" fill="none" xmlns="http://www.w3.org/2000/svg">
<path d="M19.447 2.20297C18.253 0.841972 16.095 0.258972 13.335 0.258972L5.32298 0.258972C5.04962 0.258721 4.78516 0.356107 4.57724 0.533585C4.36933 0.711062 4.23164 0.956961 4.18898 1.22697L0.846981 22.386C0.831446 22.4845 0.837543 22.5852 0.864847 22.6811C0.892152 22.777 0.94001 22.8658 1.0051 22.9414C1.07018 23.0169 1.15094 23.0774 1.24175 23.1186C1.33257 23.1598 1.43126 23.1808 1.53098 23.18L6.47798 23.18L7.71998 15.301L7.68098 15.548C7.72293 15.2785 7.85973 15.033 8.06673 14.8555C8.27373 14.678 8.53731 14.5803 8.80998 14.58H11.161C15.778 14.58 19.394 12.704 20.447 7.27997C20.4783 7.11931 20.5056 6.96297 20.529 6.81097C20.7325 6.0125 20.7404 5.17671 20.5521 4.37452C20.3637 3.57233 19.9846 2.82741 19.447 2.20297" fill="white"/>
<path d="M88.974 11.858C90.497 11.858 91.609 12.251 92.105 12.965L92.289 13.238L92.404 12.495C92.4215 12.3868 92.4768 12.2883 92.5602 12.217C92.6435 12.1458 92.7494 12.1064 92.859 12.106H95.515C95.5814 12.1069 95.6469 12.1218 95.7072 12.1498C95.7675 12.1777 95.8212 12.2179 95.865 12.268C95.9084 12.3182 95.9405 12.377 95.9593 12.4407C95.9781 12.5043 95.9831 12.5712 95.974 12.637L94.536 21.702C94.5092 21.8844 94.4172 22.0509 94.2771 22.1707C94.1371 22.2906 93.9583 22.3557 93.774 22.354H91.392C91.3257 22.354 91.2601 22.3395 91.2 22.3115C91.1399 22.2836 91.0866 22.2427 91.044 22.192C91.0009 22.1406 90.9691 22.0808 90.9506 22.0164C90.9322 21.9519 90.9275 21.8843 90.937 21.818L91.058 21.086C90.5768 21.5682 90.005 21.9504 89.3755 22.2106C88.746 22.4708 88.0712 22.6038 87.39 22.602C86.7686 22.6414 86.1463 22.5405 85.5692 22.3068C84.992 22.0731 84.4749 21.7126 84.056 21.252C83.6068 20.6859 83.2856 20.0292 83.1143 19.3272C82.9431 18.6251 82.9259 17.8943 83.064 17.185C83.2486 15.7367 83.9465 14.4027 85.0309 13.4253C86.1154 12.4478 87.5144 11.8917 88.974 11.858V11.858ZM88.835 19.792C89.556 19.8076 90.2579 19.5589 90.8082 19.0926C91.3585 18.6264 91.7191 17.9748 91.822 17.261C91.8883 16.9355 91.8826 16.5994 91.8052 16.2763C91.7278 15.9533 91.5806 15.6511 91.374 15.391C91.1519 15.1467 90.8782 14.955 90.5727 14.8299C90.2671 14.7049 89.9376 14.6495 89.608 14.668C88.8883 14.6588 88.19 14.9125 87.644 15.3814C87.098 15.8502 86.7417 16.5022 86.642 17.215C86.5696 17.5362 86.5692 17.8694 86.6407 18.1908C86.7123 18.5122 86.8541 18.8138 87.056 19.074C87.2804 19.3185 87.5565 19.5098 87.8643 19.634C88.1721 19.7583 88.5037 19.8122 88.835 19.792V19.792Z" fill="white"/>
<path d="M70.548 12.208H67.886C67.7606 12.2078 67.6372 12.2385 67.5264 12.2972C67.4157 12.356 67.3211 12.4411 67.251 12.545L63.578 17.954L62.021 12.754C61.9735 12.5954 61.8761 12.4564 61.7434 12.3575C61.6106 12.2586 61.4495 12.2051 61.284 12.205H58.669C58.5957 12.205 58.5234 12.2225 58.4582 12.2561C58.3931 12.2897 58.3368 12.3383 58.2942 12.3979C58.2516 12.4576 58.2238 12.5265 58.2131 12.599C58.2025 12.6716 58.2093 12.7456 58.233 12.815L61.164 21.415L58.409 25.313C58.3603 25.3818 58.3315 25.4627 58.3256 25.5468C58.3197 25.6308 58.337 25.7149 58.3756 25.7899C58.4141 25.8648 58.4725 25.9278 58.5443 25.9719C58.6161 26.016 58.6987 26.0395 58.783 26.04H61.443C61.567 26.0398 61.6891 26.0098 61.7989 25.9523C61.9088 25.8948 62.0031 25.8117 62.074 25.71L70.926 12.932C70.974 12.8629 71.0022 12.782 71.0074 12.698C71.0127 12.614 70.995 12.5302 70.956 12.4556C70.9171 12.381 70.8585 12.3185 70.7865 12.2749C70.7146 12.2312 70.6321 12.2081 70.548 12.208" fill="white"/>
<path d="M98.861 7.48199L96.59 21.923C96.5796 21.9889 96.5836 22.0562 96.6017 22.1204C96.6198 22.1845 96.6517 22.244 96.695 22.2947C96.7384 22.3454 96.7922 22.386 96.8528 22.4139C96.9134 22.4417 96.9793 22.4561 97.046 22.456H99.332C99.515 22.4559 99.692 22.3904 99.8312 22.2715C99.9703 22.1525 100.062 21.9878 100.091 21.807L102.326 7.62399C102.336 7.55813 102.332 7.49079 102.314 7.42662C102.296 7.36245 102.264 7.30297 102.221 7.2523C102.178 7.20163 102.124 7.16097 102.063 7.13312C102.003 7.10527 101.937 7.0909 101.87 7.09099H99.316C99.206 7.09063 99.0996 7.12967 99.0159 7.20103C98.9323 7.27239 98.8769 7.37136 98.86 7.47999" fill="white"/>
<path d="M19.447 2.20297C18.253 0.841972 16.095 0.258972 13.335 0.258972L5.32298 0.258972C5.04962 0.258721 4.78516 0.356107 4.57724 0.533585C4.36933 0.711062 4.23164 0.956961 4.18898 1.22697L0.846981 22.386C0.831446 22.4845 0.837543 22.5852 0.864847 22.6811C0.892152 22.777 0.94001 22.8658 1.0051 22.9414C1.07018 23.0169 1.15094 23.0774 1.24175 23.1186C1.33257 23.1598 1.43126 23.1808 1.53098 23.18L6.47798 23.18L7.71998 15.301L7.68098 15.548C7.72293 15.2785 7.85973 15.033 8.06673 14.8555C8.27373 14.678 8.53731 14.5803 8.80998 14.58H11.161C15.778 14.58 19.394 12.704 20.447 7.27997C20.4783 7.11931 20.5056 6.96297 20.529 6.81097C20.7325 6.0125 20.7404 5.17671 20.5521 4.37452C20.3637 3.57233 19.9846 2.82741 19.447 2.20297" fill="white"/>
<path d="M9.05499 6.83699C9.0918 6.60081 9.212 6.38563 9.39379 6.23043C9.57559 6.07523 9.80696 5.99029 10.046 5.99099H16.327C17.0205 5.9865 17.7133 6.03666 18.399 6.14099C18.7457 6.19686 19.0886 6.27367 19.426 6.37099C19.8087 6.47822 20.1791 6.62536 20.531 6.80999C20.7343 6.01152 20.7419 5.17579 20.5531 4.37375C20.3644 3.57171 19.985 2.82706 19.447 2.20299C18.247 0.842991 16.093 0.259991 13.333 0.259991L5.31999 0.259991C5.04698 0.260216 4.783 0.357818 4.5755 0.535254C4.368 0.712689 4.2306 0.95832 4.188 1.22799L0.846996 22.38C0.830565 22.4785 0.835818 22.5795 0.862392 22.6758C0.888967 22.772 0.936221 22.8614 1.00086 22.9375C1.0655 23.0137 1.14598 23.0749 1.23667 23.1167C1.32737 23.1586 1.4261 23.1802 1.526 23.18L6.47799 23.18L7.71999 15.3L9.05499 6.83699V6.83699Z" fill="white"/>
<path d="M20.531 6.80897C20.5063 6.96563 20.479 7.12197 20.449 7.27797C19.393 12.703 15.777 14.578 11.16 14.578H8.80897C8.53636 14.5781 8.2728 14.6758 8.06593 14.8533C7.85905 15.0309 7.7225 15.2765 7.68097 15.546L6.48097 23.178L6.13497 25.34C6.12038 25.4263 6.12485 25.5148 6.14808 25.5992C6.1713 25.6836 6.21272 25.7619 6.26941 25.8286C6.32611 25.8953 6.39672 25.9488 6.47628 25.9853C6.55584 26.0218 6.64243 26.0405 6.72997 26.04L10.9 26.04C11.1388 26.0404 11.37 25.9554 11.5515 25.8002C11.7331 25.645 11.8532 25.43 11.89 25.194L11.931 24.981L12.717 20.001L12.767 19.726C12.8038 19.4898 12.924 19.2746 13.1058 19.1194C13.2876 18.9642 13.5189 18.8793 13.758 18.88H14.381C18.42 18.88 21.581 17.24 22.507 12.493C22.89 10.51 22.69 8.85297 21.673 7.68997C21.3491 7.32923 20.9621 7.03067 20.531 6.80897" fill="white"/>
<path d="M19.426 6.369C19.2646 6.321 19.098 6.27833 18.926 6.241C18.755 6.203 18.578 6.17 18.397 6.141C17.7115 6.03493 17.0186 5.9841 16.325 5.989L10.044 5.989C9.8048 5.98833 9.57331 6.07342 9.39149 6.22882C9.20967 6.38422 9.08958 6.59963 9.05298 6.836L7.71998 15.301L7.68098 15.547C7.72252 15.2776 7.85906 15.0319 8.06594 14.8544C8.27282 14.6768 8.53637 14.5792 8.80898 14.579H11.161C15.778 14.579 19.394 12.703 20.45 7.279C20.481 7.119 20.508 6.963 20.532 6.81C20.2528 6.66523 19.9622 6.54382 19.663 6.447C19.585 6.421 19.506 6.397 19.426 6.373" fill="white"/>
<path d="M34.15 6.97798L39.681 6.97798C40.4143 6.909 41.1539 6.99927 41.8491 7.24263C42.5443 7.48599 43.1788 7.87669 43.709 8.38798C44.0819 8.89412 44.3381 9.47657 44.4591 10.0935C44.5801 10.7104 44.563 11.3465 44.409 11.956C44.2557 13.4683 43.5509 14.8713 42.429 15.897C41.1952 16.8336 39.6687 17.3012 38.122 17.216H36.374C36.1898 17.2136 36.0109 17.2779 35.8703 17.3969C35.7298 17.516 35.6369 17.6819 35.609 17.864L35.009 21.693C34.9796 21.874 34.8868 22.0386 34.7472 22.1575C34.6076 22.2763 34.4303 22.3417 34.247 22.342H31.609C31.542 22.3421 31.4758 22.3276 31.415 22.2994C31.3542 22.2712 31.3003 22.2301 31.257 22.179C31.2151 22.1273 31.1846 22.0674 31.1674 22.0031C31.1501 21.9388 31.1466 21.8717 31.157 21.806L33.388 7.62698C33.417 7.44583 33.5097 7.28097 33.6494 7.16202C33.789 7.04306 33.9665 6.97781 34.15 6.97798V6.97798ZM37.032 14.142C38.501 14.142 40.016 14.142 40.319 12.154C40.3893 11.8933 40.4014 11.6203 40.3546 11.3544C40.3077 11.0884 40.2031 10.836 40.048 10.615C39.562 10.043 38.622 10.043 37.626 10.043L37.241 10.043C37.1316 10.0431 37.0259 10.0822 36.9429 10.1534C36.8598 10.2245 36.8049 10.3229 36.788 10.431L36.2 14.142H37.032Z" fill="white"/>
<path d="M49.683 11.843C51.206 11.843 52.318 12.237 52.81 12.953L52.994 13.219L53.113 12.482C53.1279 12.3744 53.1811 12.2759 53.2629 12.2044C53.3446 12.1329 53.4494 12.0934 53.558 12.093H56.214C56.2808 12.0922 56.347 12.1061 56.4079 12.1337C56.4688 12.1613 56.5229 12.2018 56.5664 12.2525C56.61 12.3032 56.6419 12.3628 56.66 12.4272C56.678 12.4915 56.6818 12.559 56.671 12.625L55.236 21.685C55.2103 21.8675 55.1191 22.0344 54.9795 22.1547C54.8399 22.2751 54.6613 22.3405 54.477 22.339H52.095C52.0283 22.3392 51.9624 22.3249 51.9018 22.2972C51.8411 22.2695 51.7872 22.2289 51.7438 22.1784C51.7003 22.1278 51.6684 22.0684 51.6501 22.0043C51.6319 21.9402 51.6277 21.8728 51.638 21.807L51.755 21.07C51.2737 21.5525 50.7016 21.9348 50.0716 22.1948C49.4417 22.4549 48.7665 22.5875 48.085 22.585C47.4645 22.6249 46.843 22.5246 46.2665 22.2916C45.6901 22.0586 45.1735 21.6988 44.755 21.239C44.3063 20.6723 43.9857 20.0151 43.8151 19.3127C43.6446 18.6103 43.6281 17.8793 43.767 17.17C43.9518 15.7207 44.6505 14.386 45.7362 13.4084C46.8219 12.4308 48.2224 11.8753 49.683 11.843V11.843ZM49.531 19.775C50.2518 19.791 50.9535 19.5428 51.5039 19.0771C52.0544 18.6114 52.4154 17.9605 52.519 17.247C52.5862 16.9214 52.5815 16.5851 52.5052 16.2616C52.4288 15.938 52.2827 15.6351 52.077 15.374C51.8534 15.1306 51.5788 14.9398 51.2728 14.8151C50.9668 14.6905 50.6369 14.6351 50.307 14.653C49.5868 14.6434 48.8879 14.8969 48.3415 15.3661C47.795 15.8352 47.4385 16.4877 47.339 17.201C47.2671 17.5229 47.2669 17.8566 47.3385 18.1786C47.41 18.5005 47.5515 18.8028 47.753 19.064C47.9782 19.3067 48.2545 19.4965 48.562 19.6194C48.8695 19.7424 49.2005 19.7955 49.531 19.775V19.775Z" fill="white"/>
<path d="M74.094 7.16197L79.625 7.16197C80.3589 7.094 81.0989 7.18483 81.7947 7.4283C82.4904 7.67178 83.1255 8.06218 83.657 8.57297C84.0309 9.07959 84.2882 9.66263 84.4104 10.2803C84.5327 10.898 84.5168 11.5351 84.364 12.146C84.208 13.6583 83.4998 15.0601 82.375 16.083C81.1396 17.0178 79.6129 17.4845 78.066 17.4H76.316C76.1332 17.4007 75.9567 17.4665 75.8182 17.5856C75.6796 17.7048 75.588 17.8694 75.56 18.05L74.926 22.07C74.9054 22.1968 74.8406 22.3123 74.7431 22.396C74.6455 22.4796 74.5215 22.526 74.393 22.527H71.557C71.4896 22.5272 71.4231 22.5128 71.3619 22.4846C71.3008 22.4565 71.2465 22.4153 71.203 22.364C71.1611 22.3126 71.1302 22.2531 71.1121 22.1893C71.094 22.1255 71.0892 22.0587 71.098 21.993L73.332 7.81097C73.3608 7.62974 73.4534 7.46476 73.5931 7.34577C73.7328 7.22678 73.9105 7.1616 74.094 7.16197V7.16197ZM76.977 14.327C78.443 14.327 79.957 14.327 80.257 12.344C80.3289 12.0832 80.3426 11.8097 80.2969 11.5431C80.2513 11.2764 80.1475 11.023 79.993 10.801C79.507 10.233 78.561 10.233 77.563 10.233L77.18 10.233C77.0703 10.2328 76.9643 10.2723 76.8814 10.3442C76.7985 10.416 76.7444 10.5154 76.729 10.624L76.143 14.327H76.977Z" fill="white"/>
</svg>
