<svg width="103" height="31" viewBox="0 0 103 31" fill="none" xmlns="http://www.w3.org/2000/svg">
<path d="M10.2709 29.5279C7.50201 28.3566 5.13956 26.3954 3.47864 23.8893C1.81772 21.3833 0.931946 18.4434 0.931946 15.4369C0.931946 12.4304 1.81772 9.49058 3.47864 6.98453C5.13956 4.47847 7.50201 2.51729 10.2709 1.34593C13.5392 -0.0358492 17.1862 -0.23808 20.5871 0.773892C23.9881 1.78586 26.9313 3.94904 28.9124 6.8928C30.8936 9.83656 31.7893 13.3777 31.4463 16.9094C31.1032 20.4411 29.5426 23.7435 27.0319 26.2509C24.8804 28.4015 22.1367 29.862 19.1512 30.4457C16.1657 31.0294 13.074 30.7099 10.2709 29.5279V29.5279ZM21.9249 22.5179C22.1406 22.6427 22.3964 22.6781 22.6378 22.6167C22.8792 22.5553 23.0871 22.4019 23.2169 22.1893C23.3467 21.9767 23.3882 21.7217 23.3325 21.4789C23.2768 21.2361 23.1284 21.0247 22.9189 20.8899C20.1859 19.2631 17.0529 18.4319 13.8729 18.4899C11.9175 18.506 9.97009 18.7408 8.06693 19.1899C7.83872 19.2421 7.63771 19.3765 7.50224 19.5674C7.36676 19.7584 7.3063 19.9925 7.33239 20.2251C7.35847 20.4578 7.46927 20.6727 7.64366 20.8289C7.81805 20.985 8.04383 21.0716 8.27793 21.0719C8.35004 21.0708 8.4218 21.0618 8.49193 21.0449C10.2521 20.6289 12.0533 20.4112 13.8619 20.3959C16.6951 20.3388 19.4879 21.0737 21.9259 22.5179H21.9249ZM23.4679 18.4309C23.6015 18.5129 23.7499 18.5678 23.9046 18.5924C24.0594 18.617 24.2175 18.6109 24.3698 18.5744C24.5222 18.5379 24.6659 18.4717 24.7927 18.3797C24.9196 18.2876 25.027 18.1715 25.1089 18.0379C25.2716 17.7679 25.3214 17.4447 25.2477 17.1382C25.174 16.8317 24.9826 16.5665 24.7149 16.3999C23.0983 15.4257 21.3458 14.6974 19.5149 14.2389C17.6013 13.7459 15.633 13.4973 13.6569 13.4989C11.5857 13.486 9.52385 13.7784 7.53793 14.3669C7.38164 14.4066 7.23504 14.4776 7.10698 14.5756C6.97892 14.6736 6.87208 14.7966 6.79291 14.937C6.71375 15.0775 6.66391 15.2326 6.64642 15.3929C6.62892 15.5532 6.64413 15.7154 6.69112 15.8696C6.73811 16.0239 6.81591 16.167 6.91981 16.2903C7.02371 16.4136 7.15155 16.5146 7.29559 16.5871C7.43963 16.6595 7.59689 16.702 7.75783 16.712C7.91877 16.7219 8.08006 16.6991 8.23193 16.6449C9.98298 16.1291 11.8005 15.8744 13.6259 15.8889C17.0748 15.8412 20.4735 16.719 23.4679 18.4309V18.4309ZM13.9829 11.0929C17.9058 10.9817 21.7914 11.8804 25.2669 13.7029C25.5925 13.8885 25.9778 13.939 26.3402 13.8436C26.7026 13.7481 27.0131 13.5143 27.2049 13.1924C27.3968 12.8705 27.4547 12.4862 27.3663 12.1221C27.2778 11.7579 27.0501 11.443 26.7319 11.2449C22.8108 9.16185 18.4187 8.12513 13.9799 8.23493C11.5113 8.20747 9.05131 8.53139 6.67393 9.19693C6.3447 9.29543 6.06196 9.50919 5.87744 9.79909C5.69291 10.089 5.61896 10.4356 5.6691 10.7756C5.71925 11.1156 5.89014 11.4261 6.1505 11.6504C6.41087 11.8747 6.74329 11.9977 7.08693 11.9969C7.2282 11.9966 7.36867 11.9757 7.50393 11.9349C9.61158 11.3496 11.7917 11.0664 13.9789 11.0939L13.9829 11.0929ZM89.0239 25.0749C88.9853 25.0544 88.9559 25.0199 88.942 24.9784C88.928 24.9369 88.9305 24.8916 88.9489 24.8519L89.7489 23.0939C89.7585 23.0725 89.7723 23.0533 89.7895 23.0373C89.8067 23.0213 89.8269 23.0089 89.8489 23.0009C89.8717 22.9939 89.8955 22.9914 89.9192 22.9936C89.9429 22.9959 89.9659 23.0028 89.9869 23.0139C90.3824 23.2444 90.8294 23.3716 91.2869 23.3839C91.8019 23.3839 92.1799 23.2139 92.5629 22.3619L89.1819 14.2549H86.9819V22.3639C86.9819 22.4101 86.9636 22.4543 86.931 22.487C86.8983 22.5196 86.8541 22.5379 86.8079 22.5379H84.4439C84.4212 22.5378 84.3987 22.5332 84.3778 22.5244C84.3569 22.5156 84.3379 22.5027 84.3219 22.4866C84.3059 22.4704 84.2933 22.4513 84.2847 22.4302C84.2761 22.4092 84.2718 22.3867 84.2719 22.3639V14.2539H83.1319C83.0858 14.2539 83.0415 14.2356 83.0089 14.203C82.9763 14.1703 82.9579 14.1261 82.9579 14.0799V12.0379C82.9579 11.9918 82.9763 11.9475 83.0089 11.9149C83.0415 11.8823 83.0858 11.8639 83.1319 11.8639H84.2719V11.3639C84.2719 9.03893 85.4259 7.80893 87.6099 7.80893C88.2756 7.8015 88.9384 7.89696 89.5749 8.09193C89.6105 8.10273 89.6415 8.12473 89.6635 8.15465C89.6855 8.18457 89.6972 8.2208 89.6969 8.25793V10.2449C89.6973 10.2724 89.691 10.2996 89.6787 10.3241C89.6663 10.3487 89.6482 10.3699 89.6259 10.3859C89.6037 10.4019 89.5779 10.4125 89.5508 10.4166C89.5237 10.4208 89.496 10.4185 89.4699 10.4099C89.0433 10.2524 88.5927 10.1692 88.1379 10.1639C87.3119 10.1639 86.9429 10.5929 86.9429 11.5539V11.8809H90.9809C91.0161 11.8809 91.0505 11.8916 91.0794 11.9116C91.1084 11.9316 91.1305 11.96 91.1429 11.9929L93.9039 19.1989L96.4259 11.9989C96.4377 11.9649 96.4598 11.9353 96.4892 11.9145C96.5187 11.8937 96.5539 11.8826 96.5899 11.8829H99.0509C99.0789 11.883 99.1064 11.8899 99.1312 11.903C99.1559 11.916 99.1771 11.9349 99.1929 11.9579C99.2087 11.9813 99.2185 12.0082 99.2217 12.0362C99.2248 12.0643 99.2211 12.0926 99.2109 12.1189L95.1109 22.7189C94.2609 24.9059 93.2949 25.7189 91.5499 25.7189C90.6656 25.7327 89.7937 25.5104 89.0239 25.0749V25.0749ZM48.1519 25.6619C48.1293 25.6618 48.1068 25.6572 48.086 25.6484C48.0651 25.6395 48.0461 25.6267 48.0302 25.6105C48.0144 25.5943 48.0018 25.5752 47.9934 25.5541C47.9849 25.5331 47.9807 25.5106 47.9809 25.4879V12.0449C47.9808 12.0223 47.9851 12 47.9936 11.979C48.0022 11.9581 48.0147 11.9391 48.0306 11.923C48.0465 11.907 48.0654 11.8942 48.0862 11.8854C48.107 11.8766 48.1293 11.8721 48.1519 11.8719H50.5179C50.5638 11.8722 50.6078 11.8905 50.6403 11.9228C50.6729 11.9552 50.6914 11.999 50.6919 12.0449V13.2559C51.0843 12.7501 51.5887 12.3423 52.1656 12.0646C52.7424 11.7869 53.3758 11.647 54.0159 11.6559C55.2964 11.6578 56.5248 12.1631 57.4359 13.0629C57.9599 13.6132 58.3678 14.2631 58.6356 14.9742C58.9035 15.6852 59.0256 16.4428 58.9949 17.2019C58.9949 20.8429 56.4949 22.7479 54.0169 22.7479C53.3856 22.7612 52.7592 22.6332 52.1837 22.3731C51.6082 22.1131 51.0982 21.7276 50.6909 21.2449V25.4879C50.6904 25.5339 50.6719 25.5779 50.6394 25.6104C50.6069 25.6429 50.5629 25.6614 50.5169 25.6619H48.1519ZM50.6319 17.2049C50.6034 17.5995 50.6549 17.9958 50.7833 18.37C50.9117 18.7442 51.1144 19.0886 51.3791 19.3826C51.6439 19.6766 51.9653 19.914 52.324 20.0808C52.6828 20.2475 53.0715 20.3401 53.4669 20.3529C53.8615 20.345 54.2501 20.2552 54.6081 20.0893C54.9661 19.9233 55.2858 19.6848 55.5469 19.3889C55.8079 19.093 56.0047 18.746 56.1247 18.3701C56.2447 17.9941 56.2853 17.5974 56.2439 17.2049C56.2804 16.8134 56.2364 16.4186 56.1146 16.0447C55.9928 15.6708 55.7958 15.3258 55.5356 15.0309C55.2755 14.736 54.9578 14.4975 54.602 14.33C54.2462 14.1625 53.86 14.0696 53.4669 14.0569C53.0715 14.0698 52.6828 14.1623 52.324 14.3291C51.9653 14.4958 51.6439 14.7333 51.3791 15.0273C51.1144 15.3213 50.9117 15.6657 50.7833 16.0399C50.6549 16.4141 50.6034 16.8103 50.6319 17.2049V17.2049ZM59.7319 17.2449C59.7027 16.1158 60.0112 15.0036 60.6178 14.0509C61.2245 13.0982 62.1018 12.3482 63.1373 11.8971C64.1728 11.446 65.3195 11.3143 66.4303 11.5188C67.5411 11.7233 68.5656 12.2548 69.3726 13.0451C70.1795 13.8355 70.7321 14.8487 70.9597 15.9551C71.1873 17.0614 71.0794 18.2105 70.6499 19.2552C70.2204 20.2999 69.4888 21.1925 68.5489 21.8189C67.6089 22.4452 66.5034 22.7767 65.3739 22.7709C64.6403 22.7798 63.9121 22.6437 63.2312 22.3706C62.5502 22.0974 61.9299 21.6926 61.4058 21.1792C60.8816 20.6658 60.4639 20.054 60.1767 19.3789C59.8895 18.7038 59.7383 17.9786 59.7319 17.2449V17.2449ZM62.4419 17.2039C62.4203 17.6093 62.481 18.0149 62.6203 18.3962C62.7597 18.7774 62.9748 19.1266 63.2527 19.4225C63.5305 19.7184 63.8655 19.955 64.2373 20.118C64.6091 20.281 65.01 20.3671 65.4159 20.3709C65.8188 20.3724 66.2176 20.2912 66.5878 20.1323C66.958 19.9734 67.2916 19.7402 67.568 19.4472C67.8445 19.1541 68.0578 18.8075 68.1949 18.4287C68.332 18.0499 68.3898 17.647 68.3649 17.2449C68.3856 16.8383 68.3237 16.4317 68.183 16.0497C68.0422 15.6677 67.8256 15.3181 67.5461 15.0221C67.2666 14.726 66.9301 14.4897 66.5567 14.3272C66.1834 14.1648 65.7811 14.0797 65.3739 14.0769C64.9719 14.0764 64.5741 14.1583 64.2051 14.3178C63.836 14.4773 63.5037 14.7108 63.2286 15.004C62.9536 15.2972 62.7416 15.6437 62.606 16.0221C62.4703 16.4005 62.4138 16.8028 62.4399 17.2039H62.4419ZM36.1869 20.4989C36.1535 20.469 36.1331 20.4272 36.1299 20.3824C36.1267 20.3376 36.1411 20.2933 36.1699 20.2589L37.6159 18.5389C37.6306 18.5212 37.6487 18.5067 37.6691 18.4962C37.6896 18.4857 37.712 18.4795 37.7349 18.4779C37.7809 18.4752 37.8262 18.4899 37.8619 18.5189C38.9839 19.6204 40.4897 20.2432 42.0619 20.2559C43.4489 20.2559 44.3119 19.6559 44.3119 18.6899C44.3119 17.8189 43.8849 17.3309 41.3589 16.7489C38.3909 16.0319 36.6729 15.1019 36.6729 12.4769C36.6729 10.0289 38.6639 8.31893 41.5149 8.31893C43.3608 8.28535 45.1587 8.90757 46.5889 10.0749C46.6234 10.1027 46.646 10.1426 46.6522 10.1864C46.6583 10.2302 46.6475 10.2748 46.6219 10.3109L45.3319 12.1279C45.3187 12.1467 45.3017 12.1626 45.2821 12.1746C45.2625 12.1867 45.2407 12.1946 45.2179 12.1979C45.1951 12.2018 45.1718 12.201 45.1493 12.1957C45.1268 12.1904 45.1056 12.1806 45.0869 12.1669C44.0681 11.325 42.7998 10.8431 41.4789 10.7959C40.2509 10.7959 39.4249 11.3859 39.4249 12.2639C39.4249 13.1929 39.8949 13.6349 42.5359 14.2639H42.5409C45.7559 15.0459 47.0699 16.2639 47.0639 18.4539C47.0639 21.0539 45.0789 22.7299 42.0069 22.7299C39.8566 22.7382 37.7807 21.9425 36.1869 20.4989V20.4989ZM72.5679 19.5099V14.2539H71.4319C71.4092 14.2538 71.3867 14.2492 71.3658 14.2404C71.3449 14.2316 71.3259 14.2187 71.3099 14.2026C71.2939 14.1864 71.2813 14.1673 71.2727 14.1462C71.2641 14.1252 71.2598 14.1027 71.2599 14.0799V12.0449C71.2598 12.0223 71.2642 11.9998 71.2727 11.9788C71.2813 11.9578 71.294 11.9387 71.31 11.9227C71.3259 11.9066 71.3449 11.8938 71.3659 11.8851C71.3868 11.8764 71.4093 11.8719 71.4319 11.8719H72.5689V9.21493C72.5689 9.16905 72.5872 9.12505 72.6196 9.09261C72.652 9.06016 72.696 9.04193 72.7419 9.04193H75.1059C75.1518 9.04193 75.1958 9.06016 75.2283 9.09261C75.2607 9.12505 75.2789 9.16905 75.2789 9.21493V11.8749H77.8789C77.9017 11.8746 77.9242 11.879 77.9453 11.8877C77.9663 11.8964 77.9853 11.9092 78.0012 11.9255C78.0171 11.9418 78.0295 11.9611 78.0377 11.9823C78.0459 12.0035 78.0497 12.0262 78.0489 12.0489V14.0799C78.0491 14.1027 78.0447 14.1253 78.036 14.1464C78.0274 14.1676 78.0147 14.1867 77.9986 14.2029C77.9825 14.2191 77.9634 14.2319 77.9424 14.2407C77.9213 14.2494 77.8987 14.2539 77.8759 14.2539H75.2759V19.1449C75.2759 19.9169 75.6139 20.2609 76.3759 20.2609C76.8586 20.2635 77.3346 20.1485 77.7629 19.9259C77.7894 19.9129 77.8187 19.9068 77.8482 19.9082C77.8776 19.9096 77.9063 19.9184 77.9314 19.9339C77.9565 19.9494 77.9772 19.971 77.9916 19.9968C78.0061 20.0225 78.0138 20.0514 78.0139 20.0809V22.0159C78.014 22.0464 78.006 22.0763 77.9907 22.1027C77.9754 22.1291 77.9534 22.1509 77.9269 22.1659C77.2515 22.5453 76.4864 22.7356 75.7119 22.7169C73.6249 22.7129 72.5669 21.6349 72.5669 19.5099H72.5679ZM79.3239 22.5359C79.2778 22.5359 79.2335 22.5176 79.2009 22.485C79.1683 22.4523 79.1499 22.4081 79.1499 22.3619V12.0449C79.1499 12.0221 79.1544 11.9996 79.1632 11.9785C79.1719 11.9574 79.1848 11.9383 79.201 11.9222C79.2171 11.9062 79.2363 11.8935 79.2574 11.8848C79.2785 11.8762 79.3011 11.8718 79.3239 11.8719H81.6869C81.7098 11.8717 81.7324 11.876 81.7536 11.8845C81.7748 11.8931 81.794 11.9058 81.8102 11.922C81.8264 11.9381 81.8392 11.9572 81.8479 11.9783C81.8566 11.9995 81.8611 12.0221 81.8609 12.0449V22.3619C81.8609 22.4079 81.8427 22.452 81.8103 22.4846C81.7779 22.5172 81.7339 22.5357 81.6879 22.5359H79.3239ZM99.5669 13.5269C99.5661 13.1967 99.6634 12.8736 99.8464 12.5986C100.029 12.3237 100.29 12.1093 100.595 11.9826C100.9 11.8559 101.236 11.8226 101.56 11.8869C101.884 11.9512 102.181 12.1102 102.415 12.3438C102.648 12.5775 102.807 12.8751 102.871 13.1991C102.935 13.5231 102.902 13.8589 102.775 14.1638C102.648 14.4687 102.433 14.7291 102.158 14.912C101.883 15.0948 101.56 15.1919 101.23 15.1909C100.789 15.1886 100.368 15.0125 100.056 14.7009C99.7449 14.3893 99.569 13.9674 99.5669 13.5269V13.5269ZM78.8219 8.87293C78.8233 8.42293 79.0029 7.99182 79.3216 7.67408C79.6403 7.35635 80.0719 7.17793 80.5219 7.17793V7.17793C80.8584 7.17794 81.1872 7.27777 81.4669 7.46479C81.7466 7.65181 81.9645 7.91761 82.093 8.22853C82.2215 8.53946 82.2549 8.88153 82.1889 9.21143C82.1229 9.54133 81.9605 9.84424 81.7222 10.0818C81.484 10.3193 81.1806 10.4808 80.8505 10.5459C80.5204 10.6109 80.1784 10.5765 79.8679 10.4471C79.5574 10.3177 79.2922 10.099 79.106 9.81876C78.9198 9.53854 78.8209 9.20937 78.8219 8.87293V8.87293Z" fill="white"/>
</svg>
